<?xml version="1.0" encoding="UTF-8"?>
<svg width="23px" height="19px" viewBox="0 0 23 19" version="1.1" xmlns="http://www.w3.org/2000/svg" xmlns:xlink="http://www.w3.org/1999/xlink">
    <!-- Generator: Sketch 51.3 (57544) - http://www.bohemiancoding.com/sketch -->
    <title>Blog List</title>
    <desc>Created with Sketch.</desc>
    <defs></defs>
    <g id="Page-1" stroke="none" stroke-width="1" fill="none" fill-rule="evenodd">
        <g id="Desktop" transform="translate(-177.000000, -2750.000000)" fill="#FFFFFF" fill-rule="nonzero">
            <g id="Blog-List" transform="translate(161.000000, 2742.000000)">
                <path d="M17,8 L23,8 C23.5522847,8 24,8.44771525 24,9 L24,15 C24,15.5522847 23.5522847,16 23,16 L17,16 C16.4477153,16 16,15.5522847 16,15 L16,9 C16,8.44771525 16.4477153,8 17,8 Z M26,9 L39,9 L39,11 L26,11 L26,9 Z M26,13 L39,13 L39,15 L26,15 L26,13 Z M17,19 L23,19 C23.5522847,19 24,19.4477153 24,20 L24,26 C24,26.5522847 23.5522847,27 23,27 L17,27 C16.4477153,27 16,26.5522847 16,26 L16,20 C16,19.4477153 16.4477153,19 17,19 Z M26,20 L39,20 L39,22 L26,22 L26,20 Z M26,24 L39,24 L39,26 L26,26 L26,24 Z"></path>
            </g>
        </g>
    </g>
</svg>