<?xml version="1.0" encoding="UTF-8"?>
<svg width="23px" height="23px" viewBox="0 0 23 23" version="1.1" xmlns="http://www.w3.org/2000/svg" xmlns:xlink="http://www.w3.org/1999/xlink">
    <!-- Generator: Sketch 51.3 (57544) - http://www.bohemiancoding.com/sketch -->
    <title>Group 31</title>
    <desc>Created with Sketch.</desc>
    <defs></defs>
    <g id="Page-1" stroke="none" stroke-width="1" fill="none" fill-rule="evenodd">
        <g id="Desktop" transform="translate(-177.000000, -2575.000000)">
            <g id="Group-31" transform="translate(177.000000, 2575.000000)">
                <path d="M19,5 L17,7 L17,2 L2,2 L2,21 L17,21 L17,17 L19,15 L19,22 C19,22.5522847 18.5522847,23 18,23 L1,23 C0.44771525,23 6.76353751e-17,22.5522847 0,22 L0,1 C-6.76353751e-17,0.44771525 0.44771525,1.01453063e-16 1,0 L18,0 C18.5522847,-1.01453063e-16 19,0.44771525 19,1 L19,5 Z M20.5947328,6.13426433 L22.7160532,8.25558467 L12.9525243,18.0191136 L9.63457773,19.2157398 L10.831204,15.8977932 L20.5947328,6.13426433 Z M4,5 L15,5 L15,7 L4,7 L4,5 Z M4,10 L13,10 L10.7378464,12 L4,12 L4,10 Z M4,15 L8,15 L8,16.119751 L8,17 L4,17 L4,15 Z" id="Combined-Shape" fill="#FFFFFF" fill-rule="nonzero"></path>
                <g id="Group-24" transform="translate(4.000000, 4.500000)"></g>
            </g>
        </g>
    </g>
</svg>